<svg width="95" height="87" viewBox="0 0 95 87" fill="none" xmlns="http://www.w3.org/2000/svg">
<path d="M47.0603 20.7548C60.8567 20.6563 72.1607 31.8 72.2593 45.5964C72.3578 59.3927 61.2139 70.6968 47.4177 70.7953C33.6215 70.8939 22.3173 59.7501 22.2188 45.9538C22.1202 32.1574 33.264 20.8533 47.0603 20.7548ZM47.0812 23.6988C40.5177 23.7454 34.6355 26.6678 30.6208 31.2588L31.1854 32.6413L33.8312 36.5494L37.7532 36.5213C38.74 36.5143 39.4694 37.5082 39.1633 38.4486L37.8498 42.4852L39.3819 44.7481L41.2766 41.8617C41.5467 41.4503 42.0043 41.201 42.4965 41.1975L47.8663 41.1591L50.1837 36.4403L47.4891 32.4604C46.9996 31.7376 47.2639 30.7187 48.0402 30.3236L54.2472 27.1645L56.5497 25.7606C53.6727 24.4166 50.4619 23.6747 47.0812 23.6988ZM58.0579 57.3458L56.7794 59.9496L58.4339 64.7972C64.9892 60.9246 69.374 53.7638 69.3158 45.6174C69.3149 45.4883 69.3112 45.3595 69.3081 45.2308L66.903 46.8592C66.6625 47.0221 66.3788 47.1103 66.0883 47.1123L61.9882 47.1416L57.7403 51.4507C57.4661 51.7288 57.0931 51.8864 56.7026 51.8892L51.3328 51.9276L49.6885 55.2755L56.7266 55.2252C57.7998 55.2177 58.5324 56.3806 58.0579 57.3458ZM47.3967 67.852C50.3672 67.8306 53.1974 67.2192 55.7791 66.1322L53.7966 60.3234C53.5369 59.5624 54.0431 58.8437 54.3661 58.1857L47.328 58.236C46.2546 58.2437 45.522 57.0808 45.9965 56.1154L49.0914 49.8133C49.3373 49.3129 49.8443 48.9942 50.4019 48.9902L56.072 48.9497L60.32 44.6406C60.5942 44.3625 60.9672 44.2049 61.3577 44.2021L65.6217 44.1717L68.9746 41.9018C67.9039 35.8755 64.3833 30.693 59.4878 27.4162C59.4874 27.4164 59.487 27.4166 59.4868 27.417L55.7315 29.7066C55.6995 29.7263 55.6664 29.7446 55.633 29.7617L50.8617 32.1903L53.1004 35.4969C53.3966 35.9341 53.4357 36.4967 53.2028 36.9708L50.1079 43.2729C49.8619 43.7733 49.3549 44.092 48.7973 44.0959L43.3055 44.1352L40.6316 48.2087C40.0653 49.0714 38.7611 49.0811 38.1825 48.2262L35.0092 43.539C34.7546 43.1628 34.6879 42.6903 34.8283 42.2584L35.7327 39.4794L33.0645 39.4985C32.5723 39.502 32.111 39.2594 31.8352 38.8518L28.6619 34.1646C28.6272 34.1134 28.597 34.0595 28.5691 34.0043C26.4851 37.298 25.2489 41.1773 25.1668 45.3305L30.1793 46.01C30.5503 46.0604 30.8882 46.2502 31.1242 46.541L37.4599 54.3457C37.8639 54.8433 37.8992 55.5451 37.5476 56.0808L34.6011 60.5695L34.0438 63.4632C37.7691 66.2489 42.3972 67.8877 47.3967 67.852ZM31.4783 61.2183L31.7657 59.7267C31.8019 59.5379 31.8748 59.358 31.9805 59.1975L34.4962 55.3651L29.2061 48.8486L25.3089 48.3203C25.8853 53.3174 28.1347 57.807 31.4783 61.2183Z" fill="#CCE5C9"/>
<path d="M13.108 78.0856C4.88424 69.4128 0.326132 58.1156 0.240391 46.1108C0.150729 33.5569 4.95504 21.7194 13.7685 12.7793C14.3394 12.2004 15.2711 12.1938 15.8501 12.7645L22.5701 19.3894C23.149 19.9601 23.1557 20.892 22.585 21.4707C16.0824 28.067 12.5373 36.7866 12.6033 46.0226C12.6214 48.556 12.9156 51.0824 13.478 53.5314C13.6599 54.3237 13.1652 55.1134 12.373 55.2953C11.5802 55.4772 10.7909 54.9822 10.6093 54.1901C9.99881 51.5321 9.67961 48.7913 9.65998 46.0437C9.5919 36.5119 13.0665 27.4887 19.4756 20.4721L14.8488 15.911C7.23492 24.1551 3.10334 34.8144 3.18387 46.0899C3.26753 57.8025 7.89249 68.7961 16.2069 77.0456C16.7827 77.6169 16.7877 78.546 16.2185 79.1237L13.0822 82.3049L27.7486 83.5375L26.3066 68.8902L22.8433 72.4035C22.2786 72.9761 21.328 72.9811 20.7576 72.4141C17.2823 68.96 14.5519 64.9344 12.6426 60.4495C12.3241 59.7016 12.6722 58.8371 13.4201 58.5188C14.1679 58.2006 15.0323 58.5484 15.3511 59.2965C16.9185 62.9778 19.0866 66.3242 21.8062 69.2627L26.4154 64.587C27.2749 63.7153 28.8085 64.2605 28.9283 65.476L30.8512 85.0081C30.9399 85.9086 30.1654 86.6957 29.2634 86.6188L9.70578 84.975C8.48871 84.8728 7.9217 83.3469 8.78095 82.4751L13.108 78.0856Z" fill="#CCE5C9"/>
<path d="M18.6864 8.4423C19.3321 7.94859 20.2559 8.07179 20.7498 8.71729L26.4824 16.2129C26.9761 16.8586 26.8529 17.7824 26.2072 18.2761C25.5699 18.7637 24.631 18.6378 24.1438 18.0011L18.4112 10.5055C17.9177 9.85967 18.0407 8.93584 18.6864 8.4423Z" fill="#CCE5C9"/>
<path d="M24.1602 4.83189C24.8679 4.43283 25.766 4.68309 26.1648 5.39113L30.7986 13.6115C31.1975 14.3197 30.9473 15.2173 30.2392 15.6164C29.5401 16.0108 28.6278 15.7553 28.2345 15.0571L23.6008 6.83674C23.2015 6.1287 23.452 5.23095 24.1602 4.83189Z" fill="#CCE5C9"/>
<path d="M68.2706 73.2743C68.9161 72.7804 69.8399 72.9037 70.334 73.5492L76.0666 81.0448C76.5156 81.6321 76.4507 82.4898 75.9162 83.0012C75.2908 83.5998 74.254 83.5204 73.7282 82.8329L67.9956 75.3373C67.5019 74.6918 67.6249 73.768 68.2706 73.2743Z" fill="#CCE5C9"/>
<path d="M64.2388 75.9336C64.9461 75.5344 65.8446 75.7846 66.2434 76.4928L70.8772 84.7132C71.2456 85.367 71.0503 86.2177 70.4337 86.6453C69.7305 87.133 68.7323 86.9031 68.313 86.1588L63.6792 77.9385C63.2805 77.2302 63.5307 76.3327 64.2388 75.9336Z" fill="#CCE5C9"/>
<path d="M65.9156 4.22042L85.4732 5.86421C86.6903 5.96641 87.2573 7.49228 86.3981 8.36409L81.3699 13.4644C84.4132 16.6734 86.9734 20.2612 88.9921 24.1486C89.3669 24.87 89.0857 25.7585 88.3644 26.1332C87.6434 26.5078 86.7544 26.2268 86.3799 25.5055C84.2791 21.4604 81.551 17.7591 78.2711 14.5051C77.6952 13.9338 77.6903 13.0047 78.2595 12.427L82.0966 8.53453L67.4303 7.30176L68.8722 21.949L71.6346 19.1469C72.1993 18.5742 73.15 18.5693 73.7204 19.1364C80.8058 26.1793 84.747 35.5446 84.8182 45.5067C84.8863 55.0384 81.4117 64.0616 75.0026 71.0782L79.6294 75.6394C87.2429 67.3952 91.3746 56.7359 91.2941 45.4604C91.2611 40.8472 90.5252 36.3159 89.1071 31.992C88.8535 31.2196 89.2745 30.388 90.0465 30.1346C90.8189 29.8816 91.6503 30.3022 91.9039 31.0744C93.4174 35.6883 94.2026 40.5214 94.2378 45.4394C94.3274 57.9932 89.5231 69.8307 80.7096 78.7708C80.1466 79.3418 79.1992 79.3486 78.6281 78.7857L71.9081 72.1608C71.329 71.5901 71.3223 70.6582 71.893 70.0793C78.3958 63.4831 81.9408 54.7639 81.8749 45.5277C81.8128 36.8403 78.5558 28.6442 72.672 22.2876L68.7636 26.2523C67.9041 27.1239 66.3705 26.5787 66.2508 25.3632L64.3278 5.83108C64.2391 4.9308 65.0134 4.14369 65.9156 4.22042Z" fill="#CCE5C9"/>
<path d="M39.1525 0.798904C40.4258 0.114351 43.0679 -0.625327 46.9236 1.64101C50.747 -0.680173 53.3988 0.0218785 54.6819 0.687989C56.6469 1.70816 57.8313 3.86213 57.8498 6.45C57.8991 13.3496 47.967 17.1656 47.5442 17.3247C47.2192 17.4469 46.8542 17.4495 46.5273 17.332C46.1023 17.1789 36.1168 13.5054 36.0675 6.60557C36.0488 4.0177 37.2023 1.84704 39.1525 0.798904ZM47.0143 14.3654C49.6255 13.2597 54.933 10.232 54.9061 6.47084C54.8954 4.97183 54.3193 3.81634 53.3256 3.30037C52.9145 3.08684 52.4384 2.98394 51.9126 2.98769C50.7287 2.99615 49.2915 3.54601 47.7743 4.59767C47.276 4.94253 46.6181 4.94723 46.1152 4.60952C43.9023 3.12257 41.8722 2.67899 40.5458 3.39183C39.5598 3.92194 39.0001 5.08555 39.0108 6.58437C39.0377 10.3457 44.3891 13.2978 47.0143 14.3654Z" fill="#CCE5C9"/>
</svg>
