<svg width="38" height="50" viewBox="0 0 38 50" fill="none" xmlns="http://www.w3.org/2000/svg">
<path d="M18.8013 49.02C17.5044 49.02 16.3084 48.3822 15.602 47.3145L2.96111 28.1346C0.913662 25.0363 0 22.157 0 18.8013C0 13.7509 1.94779 9.02152 5.48471 5.48448C9.0214 1.94767 13.7509 0 18.8013 0C23.8517 0 28.5811 1.94767 32.1178 5.48448C35.6546 9.02152 37.6025 13.7509 37.6025 18.8013C37.6025 22.157 36.6889 25.0363 34.6403 28.1365L22.002 47.3122C21.3012 48.3804 20.104 49.02 18.8013 49.02ZM18.8013 3.35074C10.1374 3.35074 3.35074 10.1371 3.35074 18.8013C3.35074 21.4964 4.07056 23.7358 5.75776 26.2887L18.3983 45.4682C18.4823 45.595 18.6296 45.6693 18.8013 45.6693C19.0014 45.6693 19.1424 45.5627 19.2023 45.4712L31.8436 26.2908C33.5318 23.7359 34.2518 21.4966 34.2518 18.8015C34.2519 10.1371 27.4652 3.35074 18.8013 3.35074Z" fill="#2999D0"/>
<path d="M18.8013 3.35074C10.1374 3.35074 3.35074 10.1371 3.35074 18.8013C3.35074 21.4964 4.07056 23.7358 5.75776 26.2887L18.3983 45.4682C18.4823 45.595 18.6296 45.6693 18.8013 45.6693C19.0014 45.6693 19.1424 45.5627 19.2023 45.4712L31.8436 26.2908C33.5318 23.7359 34.2518 21.4966 34.2518 18.8015C34.2519 10.1371 27.4652 3.35074 18.8013 3.35074Z" fill="white"/>
<path fill-rule="evenodd" clip-rule="evenodd" d="M30.9751 13.8178C30.5443 13.8178 30.1065 13.7672 29.6841 13.826C27.5259 14.1255 25.3725 14.4601 23.215 14.7626C22.9267 14.803 22.5973 14.8 22.3293 14.7015C19.3861 13.6159 16.5538 13.8525 13.9135 15.5269C12.632 16.3387 11.4751 17.348 10.272 18.2814C9.34489 18.9998 8.4534 19.7655 7.50922 20.4596C6.89958 20.9078 6.61808 20.7341 6.53956 19.9895C5.96078 14.513 9.72446 9.41015 15.3846 8.03154C20.3045 6.83318 25.22 8.62736 28.232 12.6823C28.3258 12.8088 28.541 12.9041 28.7039 12.9111C30.0281 12.967 31.353 13.0004 32.6779 13.0361C33.0046 13.0448 33.2479 13.1593 33.3043 13.5073C33.3599 13.8538 33.1642 14.0435 32.8637 14.1632C31.9579 14.5234 31.0596 14.9045 30.1456 15.2425C29.7932 15.3735 29.6962 15.5004 29.8024 15.898C31.1418 20.9354 29.1101 26.1528 24.7112 28.9493C23.5572 29.683 22.3054 30.1913 20.914 30.299C18.8786 30.4552 17.6098 29.3413 17.5488 27.2995C17.4996 25.6557 18.025 24.1512 18.6976 22.6835C19.6343 20.6402 21.2063 19.1502 22.8992 17.7465C24.3949 16.5063 26.1634 15.8013 27.9224 15.0745C28.8088 14.7084 29.7235 14.4092 30.6241 14.0775C30.7528 14.0303 30.8772 13.9707 31.0033 13.9166C30.9937 13.8836 30.9843 13.8509 30.9751 13.8178Z" fill="#2999D0"/>
<path fill-rule="evenodd" clip-rule="evenodd" d="M19.8179 16.0091C19.8292 16.4861 19.4462 16.8911 18.9668 16.9107C18.464 16.9315 18.0473 16.5468 18.0303 16.0462C18.0143 15.5728 18.399 15.1682 18.8821 15.1497C19.3924 15.1296 19.8055 15.5088 19.8179 16.0091Z" fill="#2999D0"/>
</svg>
